<svg width="227" height="79" viewBox="0 0 227 79" fill="none" xmlns="http://www.w3.org/2000/svg">
<rect x="0.352051" width="78.1189" height="78.1189" rx="10.6087" fill="white"/>
<path d="M58.2305 25.6645C57.2826 28.6533 53.9724 31.0762 50.8369 31.0762L24.5217 31.0762C26.4175 25.0986 33.0379 20.2529 39.3089 20.2529L59.9468 20.2529L58.2305 25.6645Z" fill="#131413"/>
<path d="M53.0101 46.4799C51.1845 52.2361 44.8093 56.9023 38.7706 56.9023L17.7121 56.9023L21.0176 46.4799L53.0101 46.4799Z" fill="#131413"/>
<path d="M56.49 33.3769C54.5942 39.3544 47.9738 44.2002 41.7028 44.2002L21.0649 44.2002L24.4975 33.3769L56.49 33.3769Z" fill="#131413"/>
<path d="M103.381 34.0796H112.143V38H99.2826V17.21H111.994V21.1304H103.381V25.5557H111.252V29.4167H103.381V34.0796ZM119.516 34.4063H126.11V38H114.378V35.4458L120.645 26.7437H114.675V23.15H125.813V25.7042L119.516 34.4063ZM131.23 32.1491C131.744 34.0103 133.14 34.9409 135.417 34.9409C136.882 34.9409 137.991 34.4459 138.744 33.4559L141.832 35.2379C140.367 37.3565 138.209 38.4158 135.358 38.4158C132.903 38.4158 130.933 37.6733 129.448 36.1883C127.963 34.7033 127.22 32.8322 127.22 30.575C127.22 28.3376 127.953 26.4764 129.418 24.9914C130.883 23.4866 132.764 22.7342 135.061 22.7342C137.239 22.7342 139.031 23.4866 140.437 24.9914C141.862 26.4962 142.575 28.3574 142.575 30.575C142.575 31.07 142.525 31.5947 142.426 32.1491H131.23ZM131.17 29.1791H138.744C138.526 28.1693 138.07 27.4169 137.377 26.9219C136.704 26.4269 135.932 26.1794 135.061 26.1794C134.031 26.1794 133.18 26.4467 132.507 26.9813C131.833 27.4961 131.388 28.2287 131.17 29.1791ZM149.081 25.7042C149.437 24.7538 150.021 24.041 150.833 23.5658C151.665 23.0906 152.585 22.853 153.595 22.853V27.1298C152.427 26.9912 151.378 27.2288 150.447 27.8426C149.536 28.4564 149.081 29.4761 149.081 30.9017V38H145.25V23.15H149.081V25.7042ZM158.906 27.3674C158.906 27.7634 159.164 28.0901 159.678 28.3475C160.213 28.5851 160.857 28.8029 161.609 29.0009C162.361 29.1791 163.114 29.4167 163.866 29.7137C164.619 29.9909 165.252 30.4661 165.767 31.1393C166.302 31.8125 166.569 32.654 166.569 33.6638C166.569 35.1884 165.995 36.3665 164.846 37.1981C163.718 38.0099 162.302 38.4158 160.599 38.4158C157.55 38.4158 155.471 37.2377 154.362 34.8815L157.689 33.0104C158.124 34.2974 159.094 34.9409 160.599 34.9409C161.965 34.9409 162.648 34.5152 162.648 33.6638C162.648 33.2678 162.381 32.951 161.847 32.7134C161.332 32.456 160.698 32.2283 159.946 32.0303C159.193 31.8323 158.441 31.5848 157.689 31.2878C156.936 30.9908 156.293 30.5255 155.758 29.8919C155.243 29.2385 154.986 28.4267 154.986 27.4565C154.986 25.9913 155.52 24.8429 156.59 24.0113C157.679 23.1599 159.025 22.7342 160.629 22.7342C161.837 22.7342 162.936 23.0114 163.926 23.5658C164.916 24.1004 165.698 24.8726 166.272 25.8824L163.005 27.6644C162.53 26.6546 161.738 26.1497 160.629 26.1497C160.134 26.1497 159.718 26.2586 159.381 26.4764C159.065 26.6942 158.906 26.9912 158.906 27.3674ZM185.319 23.15H189.388L184.665 38H181.012L178.28 29.0009L175.548 38H171.894L167.172 23.15H171.241L173.766 32.2679L176.468 23.15H180.092L182.794 32.2976L185.319 23.15ZM202.159 23.15H205.99V38H202.159V36.2477C201.01 37.6931 199.397 38.4158 197.318 38.4158C195.338 38.4158 193.635 37.6634 192.209 36.1586C190.803 34.634 190.101 32.7728 190.101 30.575C190.101 28.3772 190.803 26.5259 192.209 25.0211C193.635 23.4965 195.338 22.7342 197.318 22.7342C199.397 22.7342 201.01 23.4569 202.159 24.9023V23.15ZM195.09 33.6044C195.862 34.3766 196.842 34.7627 198.03 34.7627C199.218 34.7627 200.199 34.3766 200.971 33.6044C201.763 32.8124 202.159 31.8026 202.159 30.575C202.159 29.3474 201.763 28.3475 200.971 27.5753C200.199 26.7833 199.218 26.3873 198.03 26.3873C196.842 26.3873 195.862 26.7833 195.09 27.5753C194.318 28.3475 193.932 29.3474 193.932 30.575C193.932 31.8026 194.318 32.8124 195.09 33.6044ZM218.107 22.7342C220.107 22.7342 221.81 23.4965 223.215 25.0211C224.641 26.5259 225.354 28.3772 225.354 30.575C225.354 32.7728 224.641 34.634 223.215 36.1586C221.81 37.6634 220.107 38.4158 218.107 38.4158C216.028 38.4158 214.424 37.6931 213.296 36.2477V43.94H209.464V23.15H213.296V24.9023C214.424 23.4569 216.028 22.7342 218.107 22.7342ZM214.454 33.6044C215.226 34.3766 216.206 34.7627 217.394 34.7627C218.582 34.7627 219.562 34.3766 220.334 33.6044C221.126 32.8124 221.522 31.8026 221.522 30.575C221.522 29.3474 221.126 28.3475 220.334 27.5753C219.562 26.7833 218.582 26.3873 217.394 26.3873C216.206 26.3873 215.226 26.7833 214.454 27.5753C213.682 28.3475 213.296 29.3474 213.296 30.575C213.296 31.8026 213.682 32.8124 214.454 33.6044Z" fill="white"/>
</svg>
