<svg width="150" height="52" viewBox="0 0 150 52" fill="none" xmlns="http://www.w3.org/2000/svg">
<rect x="0.62085" y="0.44043" width="51.3354" height="51.3354" rx="6.97147" fill="white"/>
<path d="M38.6554 17.3071C38.0325 19.2711 35.8573 20.8633 33.7968 20.8633L16.5039 20.8633C17.7497 16.9352 22.1003 13.7508 26.2212 13.7508L39.7833 13.7508L38.6554 17.3071Z" fill="#131413"/>
<path d="M35.2247 30.9869C34.025 34.7695 29.8356 37.8359 25.8673 37.8359L12.0288 37.8359L14.201 30.9869L35.2247 30.9869Z" fill="#131413"/>
<path d="M37.5116 22.3749C36.2658 26.303 31.9152 29.4873 27.7943 29.4873L14.2322 29.4873L16.4879 22.3749L37.5116 22.3749Z" fill="#131413"/>
<path d="M68.3262 23.4355H74.0838V26.0117H65.6329V12.3497H73.9862V14.926H68.3262V17.834H73.4983V20.3713H68.3262V23.4355ZM78.9294 23.6501H83.2622V26.0117H75.5529V24.3332L79.6711 18.6147H75.7481V16.2531H83.067V17.9316L78.9294 23.6501ZM86.6266 22.1668C86.9649 23.3899 87.8822 24.0015 89.3786 24.0015C90.3414 24.0015 91.07 23.6762 91.5645 23.0256L93.5943 24.1966C92.6314 25.5888 91.2132 26.285 89.3395 26.285C87.7261 26.285 86.4315 25.797 85.4556 24.8212C84.4798 23.8453 83.9918 22.6157 83.9918 21.1324C83.9918 19.6621 84.4732 18.4391 85.4361 17.4632C86.3989 16.4743 87.635 15.9799 89.1444 15.9799C90.5756 15.9799 91.7532 16.4743 92.677 17.4632C93.6138 18.4521 94.0822 19.6751 94.0822 21.1324C94.0822 21.4577 94.0497 21.8025 93.9846 22.1668H86.6266ZM86.5876 20.2151H91.5645C91.4214 19.5515 91.1221 19.0571 90.6667 18.7318C90.2243 18.4065 89.7169 18.2439 89.1444 18.2439C88.4678 18.2439 87.9083 18.4195 87.4659 18.7708C87.0235 19.1091 86.7307 19.5906 86.5876 20.2151ZM98.3575 17.9316C98.5917 17.3071 98.9756 16.8386 99.509 16.5264C100.056 16.2141 100.661 16.058 101.324 16.058V18.8684C100.556 18.7774 99.8669 18.9335 99.2553 19.3368C98.6568 19.7402 98.3575 20.4103 98.3575 21.3471V26.0117H95.8398V16.2531H98.3575V17.9316ZM104.814 19.0246C104.814 19.2848 104.983 19.4995 105.322 19.6686C105.673 19.8248 106.096 19.9679 106.59 20.098C107.085 20.2151 107.579 20.3713 108.074 20.5664C108.568 20.7486 108.984 21.0609 109.323 21.5033C109.674 21.9456 109.85 22.4986 109.85 23.1622C109.85 24.1641 109.472 24.9383 108.718 25.4848C107.976 26.0182 107.046 26.285 105.927 26.285C103.923 26.285 102.557 25.5108 101.828 23.9624L104.014 22.7328C104.3 23.5786 104.938 24.0015 105.927 24.0015C106.824 24.0015 107.273 23.7217 107.273 23.1622C107.273 22.902 107.098 22.6938 106.746 22.5377C106.408 22.3685 105.992 22.2189 105.497 22.0888C105.003 21.9587 104.508 21.796 104.014 21.6008C103.52 21.4057 103.097 21.0999 102.745 20.6835C102.407 20.2542 102.238 19.7207 102.238 19.0831C102.238 18.1203 102.589 17.3656 103.292 16.8191C104.007 16.2596 104.892 15.9799 105.946 15.9799C106.74 15.9799 107.462 16.1621 108.113 16.5264C108.763 16.8777 109.277 17.3851 109.654 18.0487L107.508 19.2197C107.195 18.5562 106.675 18.2244 105.946 18.2244C105.621 18.2244 105.348 18.2959 105.126 18.4391C104.918 18.5822 104.814 18.7774 104.814 19.0246ZM122.171 16.2531H124.845L121.742 26.0117H119.341L117.545 20.098L115.75 26.0117H113.349L110.246 16.2531H112.92L114.579 22.2449L116.355 16.2531H118.736L120.512 22.2644L122.171 16.2531ZM133.237 16.2531H135.755V26.0117H133.237V24.8602C132.483 25.81 131.422 26.285 130.056 26.285C128.755 26.285 127.636 25.7905 126.699 24.8017C125.775 23.7998 125.313 22.5767 125.313 21.1324C125.313 19.6882 125.775 18.4716 126.699 17.4827C127.636 16.4808 128.755 15.9799 130.056 15.9799C131.422 15.9799 132.483 16.4548 133.237 17.4046V16.2531ZM128.592 23.1232C129.1 23.6306 129.744 23.8843 130.524 23.8843C131.305 23.8843 131.949 23.6306 132.457 23.1232C132.977 22.6027 133.237 21.9391 133.237 21.1324C133.237 20.3257 132.977 19.6686 132.457 19.1612C131.949 18.6407 131.305 18.3805 130.524 18.3805C129.744 18.3805 129.1 18.6407 128.592 19.1612C128.085 19.6686 127.831 20.3257 127.831 21.1324C127.831 21.9391 128.085 22.6027 128.592 23.1232ZM143.718 15.9799C145.032 15.9799 146.151 16.4808 147.075 17.4827C148.011 18.4716 148.48 19.6882 148.48 21.1324C148.48 22.5767 148.011 23.7998 147.075 24.8017C146.151 25.7905 145.032 26.285 143.718 26.285C142.351 26.285 141.297 25.81 140.556 24.8602V29.9152H138.038V16.2531H140.556V17.4046C141.297 16.4548 142.351 15.9799 143.718 15.9799ZM141.317 23.1232C141.824 23.6306 142.468 23.8843 143.249 23.8843C144.03 23.8843 144.674 23.6306 145.181 23.1232C145.702 22.6027 145.962 21.9391 145.962 21.1324C145.962 20.3257 145.702 19.6686 145.181 19.1612C144.674 18.6407 144.03 18.3805 143.249 18.3805C142.468 18.3805 141.824 18.6407 141.317 19.1612C140.81 19.6686 140.556 20.3257 140.556 21.1324C140.556 21.9391 140.81 22.6027 141.317 23.1232Z" fill="white"/>
<path d="M66.2078 39.6206C66.3336 40.269 66.6287 40.7722 67.0932 41.1303C67.5674 41.4883 68.1481 41.6674 68.8351 41.6674C69.7932 41.6674 70.49 41.3141 70.9254 40.6077L71.9996 41.2174C71.2932 42.3109 70.2287 42.8577 68.8061 42.8577C67.6545 42.8577 66.7158 42.4996 65.99 41.7835C65.2739 41.0577 64.9159 40.1432 64.9159 39.04C64.9159 37.9464 65.2691 37.0368 65.9755 36.311C66.682 35.5852 67.5965 35.2223 68.719 35.2223C69.7835 35.2223 70.6496 35.5997 71.3174 36.3545C71.9948 37.0997 72.3335 37.9997 72.3335 39.0545C72.3335 39.2384 72.319 39.4271 72.2899 39.6206H66.2078ZM68.719 36.4126C68.0416 36.4126 67.4803 36.6061 67.0352 36.9932C66.59 37.3707 66.3142 37.8787 66.2078 38.5174H71.0561C70.9496 37.8303 70.6787 37.3078 70.2432 36.9497C69.8077 36.5916 69.2997 36.4126 68.719 36.4126ZM74.8402 41.4641H78.7014V42.6689H73.1128V41.827L76.8143 36.6158H73.258V35.411H78.5562V36.2529L74.8402 41.4641ZM80.6386 39.6206C80.7644 40.269 81.0596 40.7722 81.5241 41.1303C81.9982 41.4883 82.5789 41.6674 83.266 41.6674C84.224 41.6674 84.9208 41.3141 85.3562 40.6077L86.4304 41.2174C85.724 42.3109 84.6595 42.8577 83.2369 42.8577C82.0853 42.8577 81.1466 42.4996 80.4209 41.7835C79.7047 41.0577 79.3467 40.1432 79.3467 39.04C79.3467 37.9464 79.6999 37.0368 80.4063 36.311C81.1128 35.5852 82.0273 35.2223 83.1498 35.2223C84.2143 35.2223 85.0804 35.5997 85.7482 36.3545C86.4256 37.0997 86.7643 37.9997 86.7643 39.0545C86.7643 39.2384 86.7498 39.4271 86.7207 39.6206H80.6386ZM83.1498 36.4126C82.4724 36.4126 81.9111 36.6061 81.466 36.9932C81.0208 37.3707 80.745 37.8787 80.6386 38.5174H85.4869C85.3804 37.8303 85.1095 37.3078 84.674 36.9497C84.2385 36.5916 83.7305 36.4126 83.1498 36.4126ZM89.4789 36.6303C89.895 35.7304 90.6498 35.2804 91.7433 35.2804V36.6013C91.124 36.5723 90.5918 36.7368 90.1466 37.0949C89.7014 37.4529 89.4789 38.0287 89.4789 38.8222V42.6689H88.216V35.411H89.4789V36.6303ZM93.7984 37.3707C93.7984 37.6513 93.9387 37.8787 94.2193 38.0529C94.5 38.2174 94.8387 38.3529 95.2354 38.4593C95.6322 38.5561 96.029 38.6722 96.4257 38.8077C96.8225 38.9335 97.1612 39.1561 97.4418 39.4755C97.7225 39.7851 97.8628 40.1867 97.8628 40.6803C97.8628 41.3383 97.6064 41.8657 97.0935 42.2625C96.5902 42.6593 95.9419 42.8577 95.1483 42.8577C94.4419 42.8577 93.8371 42.7028 93.3339 42.3931C92.8306 42.0835 92.4726 41.6722 92.2597 41.1593L93.3484 40.5351C93.4645 40.8835 93.6822 41.1593 94.0016 41.3625C94.3209 41.5657 94.7032 41.6674 95.1483 41.6674C95.5645 41.6674 95.908 41.5899 96.179 41.4351C96.4499 41.2706 96.5854 41.019 96.5854 40.6803C96.5854 40.3996 96.4451 40.1771 96.1644 40.0125C95.8838 39.8384 95.5451 39.7029 95.1483 39.6061C94.7516 39.4996 94.3548 39.3787 93.958 39.2432C93.5613 39.1077 93.2226 38.8851 92.9419 38.5755C92.6613 38.2658 92.521 37.869 92.521 37.3852C92.521 36.7561 92.7629 36.2384 93.2468 35.832C93.7403 35.4255 94.3548 35.2223 95.0903 35.2223C95.6806 35.2223 96.2032 35.3578 96.658 35.6287C97.1225 35.89 97.4709 36.2578 97.7031 36.732L96.6435 37.3271C96.3822 36.7078 95.8645 36.3981 95.0903 36.3981C94.7322 36.3981 94.4274 36.4852 94.1758 36.6594C93.9242 36.8239 93.7984 37.061 93.7984 37.3707ZM107.624 35.411H108.945L106.695 42.6689H105.403L103.705 37.2981L102.007 42.6689H100.715L98.4649 35.411H99.7858L101.383 40.927L103.095 35.411H104.315L106.028 40.9416L107.624 35.411ZM115.971 35.411H117.234V42.6689H115.971V41.4206C115.342 42.3786 114.427 42.8577 113.228 42.8577C112.211 42.8577 111.345 42.4899 110.629 41.7544C109.913 41.0093 109.555 40.1045 109.555 39.04C109.555 37.9755 109.913 37.0755 110.629 36.34C111.345 35.5949 112.211 35.2223 113.228 35.2223C114.427 35.2223 115.342 35.7013 115.971 36.6594V35.411ZM113.387 41.6383C114.123 41.6383 114.737 41.3915 115.231 40.898C115.724 40.3948 115.971 39.7754 115.971 39.04C115.971 38.3045 115.724 37.69 115.231 37.1965C114.737 36.6932 114.123 36.4416 113.387 36.4416C112.661 36.4416 112.052 36.6932 111.558 37.1965C111.065 37.69 110.818 38.3045 110.818 39.04C110.818 39.7754 111.065 40.3948 111.558 40.898C112.052 41.3915 112.661 41.6383 113.387 41.6383ZM123.154 35.2223C124.17 35.2223 125.036 35.5949 125.752 36.34C126.468 37.0755 126.826 37.9755 126.826 39.04C126.826 40.1045 126.468 41.0093 125.752 41.7544C125.036 42.4899 124.17 42.8577 123.154 42.8577C121.954 42.8577 121.039 42.3786 120.41 41.4206V45.5721H119.147V35.411H120.41V36.6594C121.039 35.7013 121.954 35.2223 123.154 35.2223ZM122.994 41.6383C123.72 41.6383 124.329 41.3915 124.823 40.898C125.317 40.3948 125.563 39.7754 125.563 39.04C125.563 38.3045 125.317 37.69 124.823 37.1965C124.329 36.6932 123.72 36.4416 122.994 36.4416C122.258 36.4416 121.644 36.6932 121.15 37.1965C120.657 37.69 120.41 38.3045 120.41 39.04C120.41 39.7754 120.657 40.3948 121.15 40.898C121.644 41.3915 122.258 41.6383 122.994 41.6383ZM128.55 42.8286C128.289 42.8286 128.066 42.7367 127.883 42.5528C127.699 42.369 127.607 42.1464 127.607 41.8851C127.607 41.6238 127.699 41.4012 127.883 41.2174C128.066 41.0335 128.289 40.9416 128.55 40.9416C128.821 40.9416 129.044 41.0335 129.218 41.2174C129.402 41.4012 129.494 41.6238 129.494 41.8851C129.494 42.1464 129.402 42.369 129.218 42.5528C129.044 42.7367 128.821 42.8286 128.55 42.8286ZM131.92 34.0901C131.678 34.0901 131.475 34.0078 131.311 33.8433C131.146 33.6788 131.064 33.4804 131.064 33.2481C131.064 33.0159 131.146 32.8175 131.311 32.653C131.475 32.4788 131.678 32.3917 131.92 32.3917C132.153 32.3917 132.351 32.4788 132.515 32.653C132.68 32.8175 132.762 33.0159 132.762 33.2481C132.762 33.4804 132.68 33.6788 132.515 33.8433C132.351 34.0078 132.153 34.0901 131.92 34.0901ZM131.282 42.6689V35.411H132.545V42.6689H131.282ZM140.597 41.7544C139.852 42.4899 138.947 42.8577 137.882 42.8577C136.818 42.8577 135.913 42.4899 135.168 41.7544C134.432 41.019 134.065 40.1142 134.065 39.04C134.065 37.9658 134.432 37.061 135.168 36.3255C135.913 35.59 136.818 35.2223 137.882 35.2223C138.947 35.2223 139.852 35.59 140.597 36.3255C141.342 37.061 141.715 37.9658 141.715 39.04C141.715 40.1142 141.342 41.019 140.597 41.7544ZM137.882 41.6238C138.608 41.6238 139.218 41.377 139.711 40.8835C140.205 40.39 140.452 39.7754 140.452 39.04C140.452 38.3045 140.205 37.69 139.711 37.1965C139.218 36.7029 138.608 36.4562 137.882 36.4562C137.166 36.4562 136.561 36.7029 136.068 37.1965C135.574 37.69 135.328 38.3045 135.328 39.04C135.328 39.7754 135.574 40.39 136.068 40.8835C136.561 41.377 137.166 41.6238 137.882 41.6238Z" fill="white"/>
<path d="M64.3643 45.5721H142.252V46.2979H64.3643V45.5721Z" fill="white"/>
</svg>
