<svg width="559" height="156" viewBox="0 0 559 156" fill="none" xmlns="http://www.w3.org/2000/svg">
<g clip-path="url(#clip0_1215_742)">
<path d="M-0.000114543 115.978L69.8515 156L69.8515 134.966L17.2076 105.461L17.2076 78L-0.000117864 78L-0.000114543 115.978Z" fill="#34FFAE"/>
<path d="M0.00584382 40.0225L69.8574 2.12947e-05L69.8574 21.0337L17.2135 50.5394L17.2076 78L-0.000117864 78L0.00584382 40.0225Z" fill="#34FFAE"/>
<path d="M69.8574 114.103L69.8574 134.991L17.2135 105.485L17.2135 78.0245L33.5462 78.0245L33.5462 93.6537L69.8574 114.103Z" fill="#34FFAE" fill-opacity="0.27"/>
<path d="M69.8574 41.9458L69.8574 21.0582L17.2135 50.5638L17.2135 78.0245L33.5462 78.0245L33.5462 62.3952L69.8574 41.9458Z" fill="#34FFAE" fill-opacity="0.27"/>
<path d="M139.715 40.0225L69.8634 0V21.0337L122.507 50.5393V78L139.715 78V40.0225Z" fill="#34FFAE"/>
<path d="M139.709 115.978L69.8574 156V134.966L122.501 105.461L122.507 78L139.715 78L139.709 115.978Z" fill="#34FFAE"/>
<path d="M69.8574 41.8969V21.0093L122.501 50.5149V77.9755H106.169V62.3463L69.8574 41.8969Z" fill="#34FFAE" fill-opacity="0.27"/>
<path d="M69.8574 114.054V134.942L122.501 105.436L122.501 77.9755H106.169L106.169 93.6048L69.8574 114.054Z" fill="#34FFAE" fill-opacity="0.27"/>
<path d="M108.033 57.1431L69.8607 35.3047V46.7818L98.6296 62.8817V77.8657H108.033V57.1431Z" fill="#34FFAE"/>
<path d="M108.03 98.5883L69.8574 120.427V108.95L98.6264 92.8497L98.6296 77.8657H108.033L108.03 98.5883Z" fill="#34FFAE"/>
<path d="M188.697 93.2018H211.022V103.191H178.253V50.2161H210.644V60.2057H188.697V71.4819H208.752V81.3202H188.697V93.2018ZM252.818 103.191H241.541L233.368 91.6882L225.119 103.191H213.843L227.692 83.8933L214.448 65.3519H225.725L233.368 76.0226L241.012 65.3519H252.212L238.968 83.8176L252.818 103.191ZM287.205 103.191L276.535 84.8014H268.588V103.191H258.145V50.2161H279.335C284.229 50.2161 288.391 51.9315 291.822 55.3623C295.253 58.793 296.968 62.9302 296.968 67.7736C296.968 71.053 296.035 74.1054 294.168 76.9308C292.301 79.7057 289.829 81.7995 286.751 83.2121L298.482 103.191H287.205ZM268.588 59.9787V75.6442H279.335C281.303 75.6442 282.993 74.8875 284.405 73.3739C285.818 71.8098 286.524 69.9431 286.524 67.7736C286.524 65.6042 285.818 63.7626 284.405 62.2491C282.993 60.7355 281.303 59.9787 279.335 59.9787H268.588ZM331.014 65.3519H340.776V103.191H331.014V98.7263C328.087 102.409 323.975 104.251 318.678 104.251C313.633 104.251 309.294 102.334 305.661 98.4993C302.079 94.6145 300.288 89.8719 300.288 84.2717C300.288 78.6714 302.079 73.9541 305.661 70.1197C309.294 66.2348 313.633 64.2924 318.678 64.2924C323.975 64.2924 328.087 66.1339 331.014 69.817V65.3519ZM313.002 91.9909C314.97 93.9586 317.467 94.9424 320.494 94.9424C323.521 94.9424 326.019 93.9586 327.986 91.9909C330.005 89.9728 331.014 87.3997 331.014 84.2717C331.014 81.1436 330.005 78.5957 327.986 76.6281C326.019 74.61 323.521 73.6009 320.494 73.6009C317.467 73.6009 314.97 74.61 313.002 76.6281C311.034 78.5957 310.05 81.1436 310.05 84.2717C310.05 87.3997 311.034 89.9728 313.002 91.9909ZM371.273 74.7361H362.721V90.4773C362.721 91.7891 363.049 92.7477 363.705 93.3531C364.361 93.9586 365.32 94.3117 366.581 94.4126C367.842 94.4631 369.406 94.4379 371.273 94.337V103.191C364.563 103.948 359.82 103.318 357.045 101.299C354.321 99.2813 352.959 95.674 352.959 90.4773V74.7361H346.375V65.3519H352.959V57.7083L362.721 54.7568V65.3519H371.273V74.7361ZM385.223 88.2826C386.535 93.0252 390.092 95.3965 395.894 95.3965C399.627 95.3965 402.452 94.1351 404.37 91.6125L412.24 96.1533C408.507 101.552 403.007 104.251 395.742 104.251C389.486 104.251 384.466 102.359 380.682 98.575C376.898 94.791 375.006 90.0233 375.006 84.2717C375.006 78.5705 376.873 73.8279 380.606 70.044C384.34 66.2096 389.133 64.2924 394.985 64.2924C400.535 64.2924 405.101 66.2096 408.683 70.044C412.316 73.8784 414.132 78.621 414.132 84.2717C414.132 85.533 414.006 86.87 413.754 88.2826H385.223ZM385.071 80.7147H404.37C403.815 78.1417 402.654 76.2244 400.888 74.9631C399.173 73.7018 397.205 73.0712 394.985 73.0712C392.362 73.0712 390.192 73.7523 388.477 75.1145C386.762 76.4263 385.626 78.293 385.071 80.7147ZM451.522 50.2161H461.89V103.191H451.522V81.2445H431.845V103.191H421.402V50.2161H431.845V71.2549H451.522V50.2161ZM496.251 65.3519H506.014V103.191H496.251V98.9534C493.88 102.485 490.121 104.251 484.975 104.251C480.838 104.251 477.407 102.863 474.683 100.089C472.009 97.3137 470.672 93.4793 470.672 88.5854V65.3519H480.434V87.3745C480.434 89.8971 481.115 91.8396 482.477 93.2018C483.84 94.5135 485.656 95.1694 487.926 95.1694C490.449 95.1694 492.467 94.3874 493.981 92.8234C495.494 91.2593 496.251 88.9133 496.251 85.7852V65.3519ZM536.978 64.2924C542.073 64.2924 546.412 66.2348 549.994 70.1197C553.627 73.9541 555.443 78.6714 555.443 84.2717C555.443 89.8719 553.627 94.6145 549.994 98.4993C546.412 102.334 542.073 104.251 536.978 104.251C531.68 104.251 527.593 102.409 524.718 98.7263V103.191H514.955V50.2161H524.718V69.817C527.593 66.1339 531.68 64.2924 536.978 64.2924ZM527.669 91.9909C529.637 93.9586 532.134 94.9424 535.161 94.9424C538.188 94.9424 540.686 93.9586 542.654 91.9909C544.672 89.9728 545.681 87.3997 545.681 84.2717C545.681 81.1436 544.672 78.5957 542.654 76.6281C540.686 74.61 538.188 73.6009 535.161 73.6009C532.134 73.6009 529.637 74.61 527.669 76.6281C525.701 78.5957 524.718 81.1436 524.718 84.2717C524.718 87.3997 525.701 89.9728 527.669 91.9909Z" fill="#34FFAE"/>
</g>
<defs>
<clipPath id="clip0_1215_742">
<rect width="558.333" height="156" fill="white"/>
</clipPath>
</defs>
</svg>
