<svg width="311" height="84" viewBox="0 0 311 84" fill="none" xmlns="http://www.w3.org/2000/svg">
<path d="M75.8167 62.4835L38.1984 84V72.6718L66.5546 56.7837V27.2163L38.1984 11.3282V0L75.8167 21.5557V62.4835Z" fill="#34FFAE"/>
<path d="M0.580078 62.4835L38.1984 84V72.6718L9.84216 56.7837V27.2163L38.1984 11.3282V0L0.580078 21.5557V62.4835Z" fill="#34FFAE"/>
<path d="M38.1984 22.5852V11.343L66.5546 27.2163V56.7837L38.1984 72.6718V61.4147L57.72 50.4427V33.5572L38.1984 22.5852Z" fill="#34FFAE" fill-opacity="0.27"/>
<path d="M38.1984 22.5852V11.343L9.84216 27.2163V56.7837L38.1984 72.6718V61.4147L18.6768 50.4427V33.5572L38.1984 22.5852Z" fill="#34FFAE" fill-opacity="0.27"/>
<path d="M58.7562 30.7751L38.2001 19.0151V25.1955L53.6922 33.8653V41.9342H58.7562V30.7751Z" fill="#34FFAE"/>
<path d="M58.7544 53.0933L38.1984 64.8533V58.6729L53.6905 50.0031L53.6922 41.9342H58.7562L58.7544 53.0933Z" fill="#34FFAE"/>
<path d="M111.389 49.9293H123.385V55.2969H105.777V26.8325H123.181V32.2001H111.389V38.2589H122.165V43.5452H111.389V49.9293ZM145.842 55.2969H139.783L135.391 49.116L130.959 55.2969H124.9L132.342 44.9277L125.226 34.9652H131.284L135.391 40.6987L139.498 34.9652H145.517L138.401 44.8871L145.842 55.2969ZM164.319 55.2969L158.585 45.4157H154.316V55.2969H148.704V26.8325H160.09C162.72 26.8325 164.956 27.7542 166.799 29.5976C168.643 31.441 169.565 33.664 169.565 36.2664C169.565 38.0285 169.063 39.6686 168.06 41.1867C167.057 42.6777 165.729 43.8027 164.075 44.5617L170.378 55.2969H164.319ZM154.316 32.0781V40.4954H160.09C161.147 40.4954 162.055 40.0888 162.814 39.2755C163.573 38.4351 163.953 37.4321 163.953 36.2664C163.953 35.1007 163.573 34.1113 162.814 33.298C162.055 32.4847 161.147 32.0781 160.09 32.0781H154.316ZM187.858 34.9652H193.103V55.2969H187.858V52.8977C186.285 54.8767 184.076 55.8662 181.23 55.8662C178.519 55.8662 176.187 54.836 174.235 52.7757C172.311 50.6884 171.348 48.1401 171.348 45.131C171.348 42.1219 172.311 39.5873 174.235 37.527C176.187 35.4396 178.519 34.3959 181.23 34.3959C184.076 34.3959 186.285 35.3854 187.858 37.3643V34.9652ZM178.18 49.2787C179.237 50.3359 180.579 50.8646 182.205 50.8646C183.832 50.8646 185.174 50.3359 186.231 49.2787C187.315 48.1943 187.858 46.8118 187.858 45.131C187.858 43.4503 187.315 42.0813 186.231 41.024C185.174 39.9397 183.832 39.3975 182.205 39.3975C180.579 39.3975 179.237 39.9397 178.18 41.024C177.123 42.0813 176.594 43.4503 176.594 45.131C176.594 46.8118 177.123 48.1943 178.18 49.2787ZM209.49 40.0075H204.895V48.4654C204.895 49.1703 205.071 49.6853 205.423 50.0106C205.776 50.3359 206.291 50.5257 206.968 50.5799C207.646 50.607 208.487 50.5935 209.49 50.5393V55.2969C205.884 55.7035 203.336 55.3646 201.845 54.2803C200.381 53.1959 199.649 51.2576 199.649 48.4654V40.0075H196.111V34.9652H199.649V30.8582L204.895 29.2723V34.9652H209.49V40.0075ZM216.985 47.2862C217.69 49.8344 219.601 51.1085 222.719 51.1085C224.725 51.1085 226.243 50.4308 227.273 49.0754L231.502 51.5152C229.496 54.4158 226.541 55.8662 222.637 55.8662C219.276 55.8662 216.578 54.8496 214.545 52.8164C212.512 50.7832 211.495 48.2215 211.495 45.131C211.495 42.0677 212.498 39.5195 214.505 37.4863C216.511 35.426 219.086 34.3959 222.231 34.3959C225.213 34.3959 227.666 35.426 229.591 37.4863C231.542 39.5466 232.518 42.0948 232.518 45.131C232.518 45.8088 232.451 46.5271 232.315 47.2862H216.985ZM216.904 43.2199H227.273C226.975 41.8373 226.351 40.8072 225.402 40.1294C224.481 39.4517 223.423 39.1129 222.231 39.1129C220.821 39.1129 219.655 39.4788 218.734 40.2108C217.812 40.9156 217.202 41.9186 216.904 43.2199ZM252.608 26.8325H258.179V55.2969H252.608V43.5045H242.036V55.2969H236.424V26.8325H242.036V38.1369H252.608V26.8325ZM276.642 34.9652H281.888V55.2969H276.642V53.0197C275.368 54.9174 273.348 55.8662 270.583 55.8662C268.36 55.8662 266.517 55.1207 265.053 53.6297C263.616 52.1387 262.898 50.0784 262.898 47.4488V34.9652H268.143V46.7982C268.143 48.1537 268.509 49.1974 269.241 49.9293C269.973 50.6341 270.949 50.9866 272.169 50.9866C273.524 50.9866 274.609 50.5664 275.422 49.726C276.235 48.8856 276.642 47.6251 276.642 45.9443V34.9652ZM298.525 34.3959C301.263 34.3959 303.594 35.4396 305.519 37.527C307.471 39.5873 308.447 42.1219 308.447 45.131C308.447 48.1401 307.471 50.6884 305.519 52.7757C303.594 54.836 301.263 55.8662 298.525 55.8662C295.678 55.8662 293.483 54.8767 291.937 52.8977V55.2969H286.692V26.8325H291.937V37.3643C293.483 35.3854 295.678 34.3959 298.525 34.3959ZM293.523 49.2787C294.581 50.3359 295.922 50.8646 297.549 50.8646C299.175 50.8646 300.517 50.3359 301.575 49.2787C302.659 48.1943 303.201 46.8118 303.201 45.131C303.201 43.4503 302.659 42.0813 301.575 41.024C300.517 39.9397 299.175 39.3975 297.549 39.3975C295.922 39.3975 294.581 39.9397 293.523 41.024C292.466 42.0813 291.937 43.4503 291.937 45.131C291.937 46.8118 292.466 48.1943 293.523 49.2787Z" fill="#34FFAE"/>
</svg>
