<svg width="114" height="55" viewBox="0 0 114 55" fill="none" xmlns="http://www.w3.org/2000/svg">
<path d="M70.5841 44.644H68.6535V48.5778C68.6535 48.9359 68.7212 49.1923 68.8567 49.3472C69.0019 49.4923 69.2196 49.5697 69.5099 49.5794C69.8002 49.5794 70.1583 49.5697 70.5841 49.5504V50.6826C69.4809 50.8278 68.6728 50.7407 68.1599 50.4213C67.6471 50.0923 67.3906 49.4778 67.3906 48.5778V44.644H65.9535V43.4247H67.3906V41.7699L68.6535 41.3925V43.4247H70.5841V44.644ZM77.8364 49.7681C77.0912 50.5036 76.1864 50.8713 75.1219 50.8713C74.0574 50.8713 73.1526 50.5036 72.4074 49.7681C71.672 49.0326 71.3042 48.1278 71.3042 47.0536C71.3042 45.9795 71.672 45.0747 72.4074 44.3392C73.1526 43.6037 74.0574 43.236 75.1219 43.236C76.1864 43.236 77.0912 43.6037 77.8364 44.3392C78.5815 45.0747 78.9541 45.9795 78.9541 47.0536C78.9541 48.1278 78.5815 49.0326 77.8364 49.7681ZM75.1219 49.6375C75.8477 49.6375 76.4574 49.3907 76.9509 48.8972C77.4444 48.4036 77.6912 47.7891 77.6912 47.0536C77.6912 46.3182 77.4444 45.7037 76.9509 45.2101C76.4574 44.7166 75.8477 44.4698 75.1219 44.4698C74.4058 44.4698 73.801 44.7166 73.3074 45.2101C72.8139 45.7037 72.5671 46.3182 72.5671 47.0536C72.5671 47.7891 72.8139 48.4036 73.3074 48.8972C73.801 49.3907 74.4058 49.6375 75.1219 49.6375ZM84.0573 43.236C84.9089 43.236 85.5912 43.5069 86.1041 44.0489C86.617 44.5811 86.8734 45.3069 86.8734 46.2262V50.6826H85.6105V46.2988C85.6105 45.7085 85.4508 45.2537 85.1315 44.9343C84.8121 44.6053 84.3718 44.4408 83.8106 44.4408C83.1815 44.4408 82.6735 44.6392 82.2864 45.0359C81.8993 45.423 81.7058 46.023 81.7058 46.8359V50.6826H80.4429V43.4247H81.7058V44.4698C82.2186 43.6473 83.0025 43.236 84.0573 43.236ZM89.4348 50.8423C89.1735 50.8423 88.9509 50.7504 88.767 50.5665C88.5832 50.3826 88.4912 50.16 88.4912 49.8988C88.4912 49.6375 88.5832 49.4149 88.767 49.231C88.9509 49.0472 89.1735 48.9552 89.4348 48.9552C89.7057 48.9552 89.9283 49.0472 90.1025 49.231C90.2864 49.4149 90.3783 49.6375 90.3783 49.8988C90.3783 50.16 90.2864 50.3826 90.1025 50.5665C89.9283 50.7504 89.7057 50.8423 89.4348 50.8423ZM97.7106 49.7681C96.9655 50.5036 96.0607 50.8713 94.9962 50.8713C93.9317 50.8713 93.0268 50.5036 92.2817 49.7681C91.5462 49.0326 91.1785 48.1278 91.1785 47.0536C91.1785 45.9795 91.5462 45.0747 92.2817 44.3392C93.0268 43.6037 93.9317 43.236 94.9962 43.236C96.0607 43.236 96.9655 43.6037 97.7106 44.3392C98.4558 45.0747 98.8284 45.9795 98.8284 47.0536C98.8284 48.1278 98.4558 49.0326 97.7106 49.7681ZM94.9962 49.6375C95.722 49.6375 96.3316 49.3907 96.8252 48.8972C97.3187 48.4036 97.5655 47.7891 97.5655 47.0536C97.5655 46.3182 97.3187 45.7037 96.8252 45.2101C96.3316 44.7166 95.722 44.4698 94.9962 44.4698C94.28 44.4698 93.6752 44.7166 93.1817 45.2101C92.6881 45.7037 92.4414 46.3182 92.4414 47.0536C92.4414 47.7891 92.6881 48.4036 93.1817 48.8972C93.6752 49.3907 94.28 49.6375 94.9962 49.6375ZM101.58 44.644C101.996 43.744 102.751 43.294 103.844 43.294V44.615C103.225 44.586 102.693 44.7505 102.248 45.1085C101.803 45.4666 101.58 46.0424 101.58 46.8359V50.6826H100.317V43.4247H101.58V44.644ZM110.707 43.4247H111.956V50.3778C111.956 51.452 111.593 52.2842 110.867 52.8745C110.141 53.4745 109.27 53.7745 108.254 53.7745C107.441 53.7745 106.74 53.6197 106.149 53.31C105.559 53.01 105.114 52.5745 104.814 52.0036L105.917 51.3794C106.314 52.1923 107.103 52.5987 108.283 52.5987C109.038 52.5987 109.628 52.4003 110.054 52.0036C110.49 51.6068 110.707 51.0649 110.707 50.3778V49.3472C110.069 50.3149 109.159 50.7987 107.978 50.7987C106.943 50.7987 106.067 50.431 105.351 49.6955C104.635 48.9601 104.277 48.0649 104.277 47.0101C104.277 45.9553 104.635 45.065 105.351 44.3392C106.067 43.6037 106.943 43.236 107.978 43.236C109.169 43.236 110.078 43.715 110.707 44.673V43.4247ZM106.28 48.8536C106.774 49.3472 107.388 49.5939 108.124 49.5939C108.859 49.5939 109.473 49.3472 109.967 48.8536C110.461 48.3601 110.707 47.7456 110.707 47.0101C110.707 46.2843 110.461 45.6746 109.967 45.1811C109.473 44.6876 108.859 44.4408 108.124 44.4408C107.388 44.4408 106.774 44.6876 106.28 45.1811C105.786 45.6746 105.54 46.2843 105.54 47.0101C105.54 47.7456 105.786 48.3601 106.28 48.8536Z" fill="white"/>
<path d="M65.6777 53.5858H106.108V54.3116H65.6777V53.5858ZM110.279 53.5858H112.914V54.3116H110.279V53.5858Z" fill="white"/>
<path d="M22.0445 43.8918C33.9138 43.8918 43.5358 34.2698 43.5358 22.4005C43.5358 10.5312 33.9138 0.90918 22.0445 0.90918C10.1752 0.90918 0.553223 10.5312 0.553223 22.4005C0.553223 34.2698 10.1752 43.8918 22.0445 43.8918Z" fill="#2985EC"/>
<path d="M29.3821 12.9043H14.7055C12.0069 12.9043 10.2965 15.8153 11.654 18.1685L20.712 33.8686C21.3032 34.8938 22.7845 34.8938 23.3755 33.8686L32.4353 18.1685C33.7911 15.819 32.0789 12.9043 29.3821 12.9043ZM20.7046 29.1603L18.732 25.3424L13.9721 16.8293C13.6581 16.2845 14.046 15.5863 14.7035 15.5863H20.7028V29.1621L20.7046 29.1603ZM30.1118 16.8275L25.3538 25.3444L23.381 29.1603V15.5845H29.3803C30.0378 15.5845 30.4258 16.2826 30.1118 16.8275Z" fill="white"/>
<path d="M57.0854 34.2741H61.899V17.4869H68.5549V12.9141H50.4294V17.4869H57.0854V34.2741Z" fill="white"/>
<path d="M80.1215 34.6329C86.1985 34.6329 91.1624 29.669 91.1624 23.5919C91.1624 17.5148 86.1985 12.5508 80.1215 12.5508C74.0141 12.5508 69.0803 17.5148 69.0803 23.5919C69.0803 29.669 74.0141 34.6329 80.1215 34.6329ZM80.1215 29.9999C76.6317 29.9999 73.8938 27.0517 73.8938 23.5919C73.8938 20.1322 76.6317 17.1838 80.1215 17.1838C83.581 17.1838 86.3189 20.1322 86.3189 23.5919C86.3189 27.0517 83.581 29.9999 80.1215 29.9999Z" fill="white"/>
<path d="M113.127 34.2741V12.9141H108.314V26.0911L97.9348 12.9141H93.8132V34.2741H98.5967V21.0669L109.006 34.2741H113.127Z" fill="white"/>
</svg>
