<svg width="41" height="32" viewBox="0 0 41 32" fill="none" xmlns="http://www.w3.org/2000/svg">
<path d="M28.4383 29.4737C26.0539 31.1579 23.4078 32 20.5 32C16.4291 32 12.9106 30.4094 9.94468 27.2281C7.03688 24.1092 5.58298 20.3665 5.58298 16L-6.99382e-07 16L7.50213 8.04678L14.917 16L9.33404 16C9.33404 19.306 10.4099 22.1131 12.5617 24.4211C14.7716 26.7914 17.4177 27.9766 20.5 27.9766C22.2447 27.9766 23.9894 27.5088 25.734 26.5731L28.4383 29.4737ZM31.666 16C31.666 12.694 30.561 9.85575 28.3511 7.48538C26.1993 5.17739 23.5823 4.02339 20.5 4.02339C18.5809 4.02339 16.8362 4.49123 15.266 5.4269L12.5617 2.52631C14.9461 0.842104 17.5922 -1.02319e-06 20.5 -8.96083e-07C24.5709 -7.18138e-07 28.0603 1.55945 30.9681 4.67836C33.934 7.85965 35.417 11.6335 35.417 16L41 16L33.4979 23.9532L26.083 16L31.666 16Z" fill="#35FFAE"/>
</svg>
