<svg width="37" height="32" viewBox="0 0 37 32" fill="none" xmlns="http://www.w3.org/2000/svg">
<path d="M23.204 4.68519C23.6049 6.36536 25.1307 7.61701 26.9528 7.61701C29.0799 7.61701 30.8044 5.91184 30.8044 3.8085C30.8044 1.70517 29.0799 0 26.9528 0C25.0928 0 23.5417 1.30343 23.1805 3.03716C20.0656 3.36748 17.6332 5.97969 17.6332 9.14541C17.6332 9.15255 17.6332 9.15791 17.6332 9.16505C14.2456 9.3061 11.1524 10.2596 8.69653 11.7648C7.78463 11.0666 6.63978 10.6506 5.39741 10.6506C2.41611 10.6506 0 13.0396 0 15.9875C0 18.1265 1.27125 19.9692 3.10771 20.8209C3.28648 27.0166 10.1141 32 18.5126 32C26.9112 32 33.7478 27.0113 33.9176 20.8102C35.7396 19.9531 37 18.1158 37 15.9893C37 13.0414 34.5839 10.6524 31.6026 10.6524C30.3656 10.6524 29.2262 11.0648 28.3161 11.7576C25.8386 10.2417 22.711 9.28825 19.2891 9.16148C19.2891 9.15612 19.2891 9.15255 19.2891 9.14719C19.2891 6.87959 20.9938 4.99766 23.204 4.68876V4.68519ZM8.47984 19.3746C8.57013 17.4391 9.87028 15.9536 11.3817 15.9536C12.8931 15.9536 14.0488 17.523 13.9585 19.4585C13.8682 21.394 12.7396 22.0975 11.2264 22.0975C9.71318 22.0975 8.38956 21.3101 8.47984 19.3746ZM25.6454 15.9536C27.1586 15.9536 28.4588 17.4391 28.5472 19.3746C28.6375 21.3101 27.3121 22.0975 25.8007 22.0975C24.2893 22.0975 23.1589 21.3958 23.0686 19.4585C22.9783 17.523 24.1322 15.9536 25.6454 15.9536ZM23.8469 23.8527C24.1304 23.8813 24.3109 24.1723 24.2008 24.433C23.2708 26.631 21.075 28.1754 18.5126 28.1754C15.9503 28.1754 13.7563 26.631 12.8245 24.433C12.7143 24.1723 12.8949 23.8813 13.1784 23.8527C14.8397 23.6866 16.6365 23.5956 18.5126 23.5956C20.3888 23.5956 22.1837 23.6866 23.8469 23.8527Z" fill="#35FFAE"/>
</svg>
