<svg width="35" height="30" viewBox="0 0 35 30" fill="none" xmlns="http://www.w3.org/2000/svg">
<path d="M34.9815 2.84928C34.6348 6.45371 31.8301 24.7459 31.2315 26.5814C30.7206 28.1496 30.1801 29.5 29.1541 29.5C28.1281 29.5 27.0074 29.1422 25.9022 28.3532C24.797 27.5642 17.4596 22.6461 16.4393 22.0041C15.5464 21.4413 14.6011 20.0357 15.9327 18.6796C17.0294 17.5625 25.3475 9.49534 26.0578 8.78549C26.7682 8.07422 26.0748 7.16498 25.2059 7.87483C24.3357 8.58469 12.2181 16.6872 11.1681 17.3391C10.1775 17.9542 8.39727 18.3261 6.84489 17.8977C5.23308 17.4537 2.50333 16.6264 1.41936 16.2404C0.377835 15.8685 0 15.5107 0 14.8744C0 13.9694 1.27643 13.3444 2.62645 12.7717C4.05005 12.1665 28.6899 1.71238 30.6173 1.01807C32.0225 0.511843 33.2466 0.315286 34.0645 0.708394C34.741 1.03221 35.0862 1.75762 34.9815 2.84928Z" fill="#35FFAE"/>
</svg>
