<svg width="172" height="67" viewBox="0 0 172 67" fill="none" xmlns="http://www.w3.org/2000/svg">
<path d="M33.3869 66.1212C51.4489 66.1212 66.0911 51.479 66.0911 33.417C66.0911 15.355 51.4489 0.712891 33.3869 0.712891C15.325 0.712891 0.682861 15.355 0.682861 33.417C0.682861 51.479 15.325 66.1212 33.3869 66.1212Z" fill="#2985EC"/>
<path d="M44.5525 18.9658H22.2185C18.1119 18.9658 15.5092 23.3956 17.575 26.9765L31.3589 50.868C32.2585 52.428 34.5127 52.428 35.4121 50.868L49.1987 26.9765C51.2618 23.4012 48.6563 18.9658 44.5525 18.9658ZM31.3477 43.7032L28.3458 37.8934L21.1025 24.9387C20.6247 24.1096 21.215 23.0471 22.2156 23.0471H31.3449V43.706L31.3477 43.7032ZM45.6628 24.936L38.4225 37.8964L35.4204 43.7032V23.0444H44.5498C45.5504 23.0444 46.1407 24.1067 45.6628 24.936Z" fill="white"/>
<path d="M86.7095 51.4828H94.0345V25.9372H104.163V18.9785H76.5808V25.9372H86.7095V51.4828Z" fill="white"/>
<path d="M121.764 52.0328C131.012 52.0328 138.566 44.4791 138.566 35.2314C138.566 25.9836 131.012 18.4297 121.764 18.4297C112.471 18.4297 104.963 25.9836 104.963 35.2314C104.963 44.4791 112.471 52.0328 121.764 52.0328ZM121.764 44.9827C116.454 44.9827 112.287 40.4962 112.287 35.2314C112.287 29.9666 116.454 25.4799 121.764 25.4799C127.029 25.4799 131.195 29.9666 131.195 35.2314C131.195 40.4962 127.029 44.9827 121.764 44.9827Z" fill="white"/>
<path d="M171.991 51.4828V18.9785H164.666V39.0305L148.872 18.9785H142.6V51.4828H149.879V31.385L165.719 51.4828H171.991Z" fill="white"/>
</svg>
